<svg viewBox="105 100 426 200" data-background-color="#ffffff" preserveAspectRatio="xMidYMid meet" height="400" width="640" xmlns="http://www.w3.org/2000/svg" xmlns:xlink="http://www.w3.org/1999/xlink"><rect width="640" height="400" x="0" y="0" opacity="1" fill="#ffffff" data-fill-palette-color="background" id="background"></rect><g id="tight-bounds" transform="matrix(1,0,0,1,122.24000000000001,136.5329291048928)"><svg viewBox="0 0 395.52 126.93414179021441" height="126.93414179021441" width="395.52"><g><svg viewBox="0 0 591.0309588229406 189.679428422425" height="126.93414179021441" width="395.52"><g><rect width="7.81263559123275" height="189.679428422425" x="167.24639760020858" y="0" fill="#8abe53" opacity="1" stroke-width="0" stroke="transparent" fill-opacity="1" class="rect-o-0" data-fill-palette-color="primary" rx="1%" id="o-0" data-palette-color="#8abe53"></rect></g><g transform="matrix(1,0,0,1,195.51095882294067,0.471839374185123)"><svg viewBox="0 0 395.52 188.73574967405474" height="188.73574967405474" width="395.52"><g id="textblocktransform"><svg viewBox="0 0 395.52 188.73574967405474" height="188.73574967405474" width="395.52" id="textblock"><g><svg viewBox="0 0 395.52 188.73574967405474" height="188.73574967405474" width="395.52"><g transform="matrix(1,0,0,1,0,0)"><svg width="395.52" viewBox="-0.30000048875808716 -32.79999923706055 155.05001831054688 70.00000762939453" height="188.73574967405474" data-palette-color="#8abe53"><svg></svg><svg></svg><g class="wordmark-text-0" data-fill-palette-color="primary" id="text-0"><path xmlns="http://www.w3.org/2000/svg" d="M9.65 0.7c-0.467-2-1.433-6.033-2.9-12.1-1.467-6.067-2.65-10.7-3.55-13.9v0c-0.3-1.067-0.693-1.85-1.18-2.35-0.48-0.5-1.153-0.783-2.02-0.85v0l-0.3-0.4 0.4-3.4c0.433 0 1.267 0.017 2.5 0.05 1.233 0.033 2.5 0.05 3.8 0.05v0c1.767 0 3.517-0.05 5.25-0.15 1.733-0.1 2.85-0.167 3.35-0.2v0l0.3 0.45-0.25 3.5c-1.133 0.133-1.923 0.25-2.37 0.35-0.453 0.1-0.753 0.25-0.9 0.45-0.153 0.2-0.23 0.533-0.23 1v0c0 0.833 0.517 3.833 1.55 9 1.033 5.167 1.75 8.667 2.15 10.5v0h0.8c0.333-0.9 1.043-3.327 2.13-7.28 1.08-3.947 1.97-7.353 2.67-10.22v0c0-0.267-0.05-0.85-0.15-1.75v0c-0.1-0.733-0.383-1.233-0.85-1.5-0.467-0.267-1.3-0.417-2.5-0.45v0l-0.25-0.4 0.4-3.4c0.533 0 1.527 0.017 2.98 0.05 1.447 0.033 2.903 0.05 4.37 0.05v0c1.7 0 3.433-0.05 5.2-0.15 1.767-0.1 2.9-0.167 3.4-0.2v0l0.3 0.45-0.3 3.5c-1.133 0.133-1.923 0.25-2.37 0.35-0.453 0.1-0.747 0.25-0.88 0.45-0.133 0.2-0.2 0.533-0.2 1v0c0 0.8 0.51 3.783 1.53 8.95 1.013 5.167 1.72 8.683 2.12 10.55v0h0.85c0.433-1.2 1.41-4.643 2.93-10.33 1.513-5.68 2.27-8.887 2.27-9.62v0c0-0.467-0.14-0.783-0.42-0.95-0.287-0.167-0.83-0.25-1.63-0.25v0h-1.65l-0.25-0.4 0.35-3.55c0.467 0.033 1.483 0.077 3.05 0.13 1.567 0.047 2.967 0.07 4.2 0.07v0c1.333 0 2.533-0.017 3.6-0.05 1.067-0.033 1.783-0.05 2.15-0.05v0l-0.35 3.75c-0.667 0.167-1.15 0.417-1.45 0.75-0.3 0.333-0.6 0.967-0.9 1.9v0l-8 25.7-10.2 0.9c-0.5-3.367-1.633-8.817-3.4-16.35v0h-0.6l-4.35 15.45zM63.1 0.6c-4.6 0-8.173-1.4-10.72-4.2-2.553-2.8-3.83-6.717-3.83-11.75v0c0-3.6 0.65-6.71 1.95-9.33 1.3-2.613 3.183-4.62 5.65-6.02 2.467-1.4 5.383-2.1 8.75-2.1v0c4.733 0 8.367 1.367 10.9 4.1 2.533 2.733 3.8 6.633 3.8 11.7v0c0 3.6-0.667 6.723-2 9.37-1.333 2.653-3.24 4.687-5.72 6.1-2.487 1.42-5.413 2.13-8.78 2.13zM64.25-4.55c1.967 0 3.46-0.81 4.48-2.43 1.013-1.613 1.52-4.02 1.52-7.22v0c0-4.4-0.54-7.65-1.62-9.75-1.087-2.1-2.747-3.15-4.98-3.15v0c-3.9 0-5.85 3.183-5.85 9.55v0c0 4.4 0.543 7.667 1.63 9.8 1.08 2.133 2.687 3.2 4.82 3.2zM106.45 0.8c-1.233 0-2.29-0.377-3.17-1.13-0.887-0.747-1.68-1.903-2.38-3.47v0l-3.8-8.3h-3.2l-0.05 4.65c0 1.167 0.077 1.99 0.23 2.47 0.147 0.487 0.453 0.813 0.92 0.98 0.467 0.167 1.267 0.267 2.4 0.3v0l0.25 0.35-0.5 3.55-7.35-0.2c-1.367 0-2.873 0.05-4.52 0.15-1.653 0.1-2.73 0.167-3.23 0.2v0l0.45-3.85c1.333-0.2 2.233-0.59 2.7-1.17 0.467-0.587 0.7-1.58 0.7-2.98v0l0.05-18.5c0-0.9-0.107-1.517-0.32-1.85-0.22-0.333-0.613-0.5-1.18-0.5v0c-0.367 0-0.717 0.017-1.05 0.05-0.333 0.033-0.55 0.05-0.65 0.05v0l-0.4-0.45 0.5-3.45c0.5 0 1.41 0.017 2.73 0.05 1.313 0.033 2.603 0.05 3.87 0.05v0c1.5 0 3.1-0.033 4.8-0.1 1.7-0.067 2.883-0.117 3.55-0.15v0c4.133 0 7.277 0.75 9.43 2.25 2.147 1.5 3.22 3.717 3.22 6.65v0c0 1.967-0.55 3.757-1.65 5.37-1.1 1.62-2.683 2.997-4.75 4.13v0l3.8 6.25c0.9 1.5 1.777 2.6 2.63 3.3 0.847 0.7 1.72 1.05 2.62 1.05v0l0.45 0.65-0.4 3.05zM98.25-16.8c1.067-0.5 1.96-1.167 2.68-2 0.713-0.833 1.07-2.083 1.07-3.75v0c0-1.667-0.55-2.9-1.65-3.7-1.1-0.8-2.783-1.2-5.05-1.2v0c-0.333 0-0.55 0.067-0.65 0.2-0.1 0.133-0.167 0.433-0.2 0.9v0c-0.2 2.867-0.333 5.883-0.4 9.05v0zM129.5 0.6c-0.533-0.067-1.64-0.183-3.32-0.35-1.687-0.167-3.147-0.25-4.38-0.25v0c-1.133 0-2.433 0.06-3.9 0.18-1.467 0.113-2.417 0.203-2.85 0.27v0l0.4-3.95c1.367-0.233 2.283-0.633 2.75-1.2 0.467-0.567 0.7-1.55 0.7-2.95v0-18.05c0-1.067-0.1-1.783-0.3-2.15-0.2-0.367-0.583-0.55-1.15-0.55v0c-0.367 0-0.7 0.017-1 0.05-0.3 0.033-0.5 0.05-0.6 0.05v0l-0.4-0.55 0.45-3.5c0.533 0 1.493 0.027 2.88 0.08 1.38 0.047 2.703 0.07 3.97 0.07v0c1.5 0 3.067-0.033 4.7-0.1 1.633-0.067 2.767-0.117 3.4-0.15v0c5.167 0 9.133 1.29 11.9 3.87 2.767 2.587 4.15 6.297 4.15 11.13v0c0 3.567-0.723 6.717-2.17 9.45-1.453 2.733-3.497 4.85-6.13 6.35-2.633 1.5-5.667 2.25-9.1 2.25zM128.55-27.3c-0.467 0-0.783 0.09-0.95 0.27-0.167 0.187-0.267 0.513-0.3 0.98v0c-0.4 7-0.6 13.133-0.6 18.4v0c0 1.233 0.21 2.057 0.63 2.47 0.413 0.42 1.253 0.63 2.52 0.63v0c2.6 0 4.533-0.91 5.8-2.73 1.267-1.813 1.9-4.637 1.9-8.47v0c0-4.133-0.707-7.093-2.12-8.88-1.42-1.78-3.713-2.67-6.88-2.67z" fill="#8abe53" fill-rule="nonzero" stroke="none" stroke-width="1" stroke-linecap="butt" stroke-linejoin="miter" stroke-miterlimit="10" stroke-dasharray="" stroke-dashoffset="0" font-family="none" font-weight="none" font-size="none" text-anchor="none" style="mix-blend-mode: normal" data-fill-palette-color="primary" opacity="1"></path><path xmlns="http://www.w3.org/2000/svg" d="M9.35 36.6c-1.233 0-2.733 0.06-4.5 0.18-1.767 0.113-2.933 0.203-3.5 0.27v0l0.4-3.85c1.367-0.233 2.293-0.617 2.78-1.15 0.48-0.533 0.72-1.433 0.72-2.7v0l0.05-18.8c0-0.867-0.117-1.493-0.35-1.88-0.233-0.38-0.617-0.57-1.15-0.57v0c-0.333 0-0.667 0.017-1 0.05-0.333 0.033-0.567 0.05-0.7 0.05v0l-0.45-0.45 0.55-3.45 7.55 0.1c1.367-0.033 2.933-0.083 4.7-0.15 1.767-0.067 3.017-0.117 3.75-0.15v0c3.567 0 6.283 0.667 8.15 2 1.867 1.333 2.8 3.267 2.8 5.8v0c0 3.133-1.717 5.683-5.15 7.65v0c4.467 1.3 6.7 3.767 6.7 7.4v0c0 3.2-1.19 5.7-3.57 7.5-2.387 1.8-5.713 2.7-9.98 2.7v0c-4.267-0.367-6.867-0.55-7.8-0.55zM13.4 17.75c0.367 0.067 1.1 0.167 2.2 0.3 1.1 0.133 1.85 0.2 2.25 0.2v0c0 0.067 0.267-0.1 0.8-0.5 0.533-0.4 1.017-0.96 1.45-1.68 0.433-0.713 0.65-1.603 0.65-2.67v0c0-1.433-0.49-2.5-1.47-3.2-0.987-0.7-2.513-1.05-4.58-1.05v0c-0.333 0-0.557 0.05-0.67 0.15-0.12 0.1-0.197 0.317-0.23 0.65v0c-0.133 1.667-0.267 4.267-0.4 7.8zM13.3 23l-0.2 6.35c0 0.967 0.327 1.65 0.98 2.05 0.647 0.4 1.737 0.6 3.27 0.6v0c1.467 0 2.6-0.383 3.4-1.15 0.8-0.767 1.2-1.85 1.2-3.25v0c0-1.133-0.367-2.093-1.1-2.88-0.733-0.78-1.8-1.353-3.2-1.72v0zM47.85 37.2c-4.6 0-8.173-1.4-10.72-4.2-2.553-2.8-3.83-6.717-3.83-11.75v0c0-3.6 0.65-6.71 1.95-9.33 1.3-2.613 3.183-4.62 5.65-6.02 2.467-1.4 5.383-2.1 8.75-2.1v0c4.733 0 8.367 1.367 10.9 4.1 2.533 2.733 3.8 6.633 3.8 11.7v0c0 3.6-0.667 6.723-2 9.37-1.333 2.653-3.24 4.687-5.72 6.1-2.487 1.42-5.413 2.13-8.78 2.13zM49 32.05c1.967 0 3.46-0.81 4.48-2.43 1.013-1.613 1.52-4.02 1.52-7.22v0c0-4.4-0.54-7.65-1.62-9.75-1.087-2.1-2.747-3.15-4.98-3.15v0c-3.9 0-5.85 3.183-5.85 9.55v0c0 4.4 0.54 7.667 1.62 9.8 1.087 2.133 2.697 3.2 4.83 3.2zM81.15 37.2c-4.6 0-8.177-1.4-10.73-4.2-2.547-2.8-3.82-6.717-3.82-11.75v0c0-3.6 0.65-6.71 1.95-9.33 1.3-2.613 3.183-4.62 5.65-6.02 2.467-1.4 5.383-2.1 8.75-2.1v0c4.733 0 8.367 1.367 10.9 4.1 2.533 2.733 3.8 6.633 3.8 11.7v0c0 3.6-0.667 6.723-2 9.37-1.333 2.653-3.24 4.687-5.72 6.1-2.487 1.42-5.413 2.13-8.78 2.13zM82.3 32.05c1.967 0 3.46-0.81 4.48-2.43 1.013-1.613 1.52-4.02 1.52-7.22v0c0-4.4-0.54-7.65-1.62-9.75-1.087-2.1-2.747-3.15-4.98-3.15v0c-3.9 0-5.85 3.183-5.85 9.55v0c0 4.4 0.543 7.667 1.63 9.8 1.08 2.133 2.687 3.2 4.82 3.2zM109.8 37.2c-1.633 0-3.133-0.15-4.5-0.45-1.367-0.3-2.5-0.627-3.4-0.98-0.9-0.347-1.35-0.537-1.35-0.57v0l-0.5-0.8c0.033-0.233 0.117-0.75 0.25-1.55 0.133-0.8 0.273-1.86 0.42-3.18 0.153-1.313 0.247-2.537 0.28-3.67v0l5.05-0.35c0 2.333 0.383 3.95 1.15 4.85 0.767 0.9 2.067 1.35 3.9 1.35v0c1.333 0 2.4-0.277 3.2-0.83 0.8-0.547 1.2-1.303 1.2-2.27v0c0-1-0.473-1.833-1.42-2.5-0.953-0.667-2.43-1.45-4.43-2.35v0c-0.267-0.133-0.523-0.26-0.77-0.38-0.253-0.113-0.48-0.22-0.68-0.32v0c-2.4-1.133-4.3-2.383-5.7-3.75-1.4-1.367-2.1-3.15-2.1-5.35v0c0-2 0.6-3.783 1.8-5.35 1.2-1.567 2.873-2.783 5.02-3.65 2.153-0.867 4.613-1.3 7.38-1.3v0c1.533 0 2.967 0.1 4.3 0.3 1.333 0.2 2.4 0.407 3.2 0.62 0.8 0.22 1.3 0.363 1.5 0.43v0l0.45 0.85c-0.033 0.2-0.123 0.683-0.27 1.45-0.153 0.767-0.33 1.823-0.53 3.17-0.2 1.353-0.35 2.697-0.45 4.03v0l-4.65 0.35-0.5-0.4 0.05-1.35c0-1.333-0.35-2.3-1.05-2.9-0.7-0.6-1.8-0.9-3.3-0.9v0c-1.2 0-2.183 0.273-2.95 0.82-0.767 0.553-1.15 1.28-1.15 2.18v0c0 0.733 0.283 1.383 0.85 1.95 0.567 0.567 1.233 1.057 2 1.47 0.767 0.42 1.967 0.997 3.6 1.73v0c1.8 0.8 3.3 1.567 4.5 2.3 1.2 0.733 2.207 1.683 3.02 2.85 0.82 1.167 1.23 2.567 1.23 4.2v0c0 2.067-0.6 3.873-1.8 5.42-1.2 1.553-2.9 2.747-5.1 3.58-2.2 0.833-4.783 1.25-7.75 1.25zM131.05 36.95l0.4-3.85c1.467-0.133 2.533-0.333 3.2-0.6 0.667-0.267 1.127-0.71 1.38-1.33 0.247-0.613 0.37-1.57 0.37-2.87v0-19.1c-1.467 0.033-2.517 0.2-3.15 0.5-0.633 0.3-1.09 0.873-1.37 1.72-0.287 0.853-0.53 2.33-0.73 4.43v0l-5 0.35c0.267-3.9 0.433-7.817 0.5-11.75v0l0.6-0.6 5.4 0.55h15.6l5.55-0.55 0.55 0.6c0.133 5.167 0.267 8.967 0.4 11.4v0l-5 0.35c-0.233-2.3-0.473-3.893-0.72-4.78-0.253-0.88-0.67-1.463-1.25-1.75-0.587-0.28-1.597-0.437-3.03-0.47v0c-0.267 6.667-0.4 13.383-0.4 20.15v0c0 1.233 0.207 2.107 0.62 2.62 0.42 0.52 1.113 0.78 2.08 0.78v0c0.7 0 1.567-0.05 2.6-0.15v0l0.2 0.3-0.45 3.95c-4.9-0.167-8-0.25-9.3-0.25v0c-2.3 0-5.317 0.117-9.05 0.35z" fill="#8abe53" fill-rule="nonzero" stroke="none" stroke-width="1" stroke-linecap="butt" stroke-linejoin="miter" stroke-miterlimit="10" stroke-dasharray="" stroke-dashoffset="0" font-family="none" font-weight="none" font-size="none" text-anchor="none" style="mix-blend-mode: normal" data-fill-palette-color="primary" opacity="1"></path></g></svg></g></svg></g></svg></g></svg></g><g transform="matrix(1,0,0,1,0,0.471839374185123)"><svg viewBox="0 0 146.79447196870925 188.73574967405474" height="188.73574967405474" width="146.79447196870925"><g><svg xmlns="http://www.w3.org/2000/svg" xmlns:xlink="http://www.w3.org/1999/xlink" version="1.1" x="0" y="0" viewBox="15 5 70 90" enable-background="new 0 0 100 100" xml:space="preserve" height="188.73574967405474" width="146.79447196870925" class="icon-icon-0" data-fill-palette-color="accent" id="icon-0"><path d="M68.75 5h-37.5C30.56 5 30 5.56 30 6.25V10h-7.5c-4.136 0-7.5 3.364-7.5 7.5v70c0 4.136 3.364 7.5 7.5 7.5h55c4.136 0 7.5-3.364 7.5-7.5v-70c0-4.136-3.364-7.5-7.5-7.5H70V6.25C70 5.56 69.44 5 68.75 5zM32.5 7.5h35v6.25c0 2.068-1.682 3.75-3.75 3.75h-27.5c-2.068 0-3.75-1.682-3.75-3.75V7.5zM77.5 15c1.378 0 2.5 1.122 2.5 2.5v70c0 1.378-1.122 2.5-2.5 2.5h-55c-1.378 0-2.5-1.122-2.5-2.5v-70c0-1.378 1.122-2.5 2.5-2.5h7.626c0.581 2.849 3.106 5 6.124 5h27.5c3.018 0 5.543-2.151 6.124-5H77.5z" fill="#398378" data-fill-palette-color="accent"></path><path d="M40.366 27.866l-9.116 9.116-4.116-4.116c-0.488-0.488-1.279-0.488-1.768 0s-0.488 1.279 0 1.768l5 5C30.61 39.878 30.93 40 31.25 40s0.64-0.122 0.884-0.366l10-10c0.488-0.488 0.488-1.279 0-1.768S40.854 27.378 40.366 27.866z" fill="#398378" data-fill-palette-color="accent"></path><path d="M47.5 28.75c0 0.69 0.56 1.25 1.25 1.25h25c0.69 0 1.25-0.56 1.25-1.25s-0.56-1.25-1.25-1.25h-25C48.06 27.5 47.5 28.06 47.5 28.75z" fill="#398378" data-fill-palette-color="accent"></path><path d="M73.75 32.5h-25c-0.69 0-1.25 0.56-1.25 1.25S48.06 35 48.75 35h25c0.69 0 1.25-0.56 1.25-1.25S74.44 32.5 73.75 32.5z" fill="#398378" data-fill-palette-color="accent"></path><path d="M48.75 40h12.5c0.69 0 1.25-0.56 1.25-1.25s-0.56-1.25-1.25-1.25h-12.5c-0.69 0-1.25 0.56-1.25 1.25S48.06 40 48.75 40z" fill="#398378" data-fill-palette-color="accent"></path><path d="M73.75 47.5h-25c-0.69 0-1.25 0.56-1.25 1.25S48.06 50 48.75 50h25c0.69 0 1.25-0.56 1.25-1.25S74.44 47.5 73.75 47.5z" fill="#398378" data-fill-palette-color="accent"></path><path d="M73.75 52.5h-25c-0.69 0-1.25 0.56-1.25 1.25S48.06 55 48.75 55h25c0.69 0 1.25-0.56 1.25-1.25S74.44 52.5 73.75 52.5z" fill="#398378" data-fill-palette-color="accent"></path><path d="M48.75 60h17.5c0.69 0 1.25-0.56 1.25-1.25s-0.56-1.25-1.25-1.25h-17.5c-0.69 0-1.25 0.56-1.25 1.25S48.06 60 48.75 60z" fill="#398378" data-fill-palette-color="accent"></path><path d="M73.75 67.5h-25c-0.69 0-1.25 0.56-1.25 1.25S48.06 70 48.75 70h25c0.69 0 1.25-0.56 1.25-1.25S74.44 67.5 73.75 67.5z" fill="#398378" data-fill-palette-color="accent"></path><path d="M73.75 72.5h-25c-0.69 0-1.25 0.56-1.25 1.25S48.06 75 48.75 75h25c0.69 0 1.25-0.56 1.25-1.25S74.44 72.5 73.75 72.5z" fill="#398378" data-fill-palette-color="accent"></path><path d="M73.75 77.5h-25c-0.69 0-1.25 0.56-1.25 1.25S48.06 80 48.75 80h25c0.69 0 1.25-0.56 1.25-1.25S74.44 77.5 73.75 77.5z" fill="#398378" data-fill-palette-color="accent"></path><path d="M39.634 67.866c-0.488-0.488-1.279-0.488-1.768 0l-4.116 4.116-4.116-4.116c-0.488-0.488-1.279-0.488-1.768 0s-0.488 1.279 0 1.768l4.116 4.116-4.116 4.116c-0.488 0.488-0.488 1.279 0 1.768C28.11 79.878 28.43 80 28.75 80s0.64-0.122 0.884-0.366l4.116-4.116 4.116 4.116C38.11 79.878 38.43 80 38.75 80s0.64-0.122 0.884-0.366c0.488-0.488 0.488-1.279 0-1.768l-4.116-4.116 4.116-4.116C40.122 69.146 40.122 68.354 39.634 67.866z" fill="#398378" data-fill-palette-color="accent"></path><path d="M39.634 47.866c-0.488-0.488-1.279-0.488-1.768 0l-4.116 4.116-4.116-4.116c-0.488-0.488-1.279-0.488-1.768 0s-0.488 1.279 0 1.768l4.116 4.116-4.116 4.116c-0.488 0.488-0.488 1.279 0 1.768C28.11 59.878 28.43 60 28.75 60s0.64-0.122 0.884-0.366l4.116-4.116 4.116 4.116C38.11 59.878 38.43 60 38.75 60s0.64-0.122 0.884-0.366c0.488-0.488 0.488-1.279 0-1.768l-4.116-4.116 4.116-4.116C40.122 49.146 40.122 48.354 39.634 47.866z" fill="#398378" data-fill-palette-color="accent"></path></svg></g></svg></g></svg></g><defs></defs></svg><rect width="395.52" height="126.93414179021441" fill="none" stroke="none" visibility="hidden"></rect></g></svg>